<svg xmlns="http://www.w3.org/2000/svg" viewBox="0 0 64 64" role="img" aria-label="NPB Quiz Club favicon">
  <rect width="64" height="64" rx="14" fill="#14281d"/>
  <circle cx="32" cy="32" r="21" fill="#f6f2e8"/>
  <path d="M20 17c4 4 6 9 6 15s-2 11-6 15" fill="none" stroke="#b54635" stroke-width="2.8" stroke-linecap="round"/>
  <path d="M44 17c-4 4-6 9-6 15s2 11 6 15" fill="none" stroke="#b54635" stroke-width="2.8" stroke-linecap="round"/>
  <g stroke="#b54635" stroke-width="2" stroke-linecap="round">
    <path d="M21 21l4 2M20 26l5 2M20 31l5 1M20 36l5-1M21 41l4-2"/>
    <path d="M43 21l-4 2M44 26l-5 2M44 31l-5 1M44 36l-5-1M43 41l-4-2"/>
  </g>
  <path d="M27 27h10v10H27z" fill="#14281d" opacity=".96"/>
  <path d="M30 30h4v4h-4z" fill="#f6f2e8"/>
</svg>
